<svg width="164" height="147" viewBox="0 0 164 147" fill="none" xmlns="http://www.w3.org/2000/svg">
<path id="Vector" d="M15.2807 43.0412C5.80912 53.1141 -2.37642 66.9443 1.78106 80.0987C5.87383 93.0681 23.0133 99.9872 35.0409 93.5347C43.1698 89.174 47.9016 80.5573 54.3562 73.9922C60.8108 67.4271 71.8273 62.9296 79.0099 68.7143C87.8263 75.8024 82.1725 90.2602 74.0678 98.1448C65.9632 106.029 55.1893 113.479 54.5584 124.735C53.8385 137.608 68.1956 147.206 81.0967 146.337C93.9978 145.468 105.152 137.399 115.125 129.208C130.194 116.842 144.696 103.165 154.031 86.1007C163.365 69.0362 166.972 47.9731 159.62 29.9753C136.171 -27.4776 44.4883 11.9936 15.2807 43.0412Z" fill="#F3CD03"/>
</svg>
